<mxfile host="Electron" modified="2024-06-08T14:39:46.816Z" agent="Mozilla/5.0 (Windows NT 10.0; Win64; x64) AppleWebKit/537.36 (KHTML, like Gecko) draw.io/24.4.8 Chrome/124.0.6367.207 Electron/30.0.6 Safari/537.36" etag="0Mvg0uT-Sl-fPJBCG_rp" version="24.4.8" type="device">
  <diagram name="Сторінка-1" id="PfKNodPfmLsvP7erlcpA">
    <mxGraphModel dx="792" dy="1187" grid="0" gridSize="10" guides="1" tooltips="1" connect="1" arrows="1" fold="1" page="1" pageScale="1" pageWidth="827" pageHeight="1169" math="0" shadow="0">
      <root>
        <mxCell id="0" />
        <mxCell id="1" parent="0" />
        <mxCell id="nj71NNOMhs7K9aFqE9io-1" style="edgeStyle=orthogonalEdgeStyle;rounded=0;orthogonalLoop=1;jettySize=auto;html=1;exitX=0.5;exitY=1;exitDx=0;exitDy=0;entryX=0.5;entryY=0;entryDx=0;entryDy=0;" edge="1" parent="1" source="nj71NNOMhs7K9aFqE9io-2" target="nj71NNOMhs7K9aFqE9io-6">
          <mxGeometry relative="1" as="geometry" />
        </mxCell>
        <mxCell id="nj71NNOMhs7K9aFqE9io-2" value="" style="ellipse;whiteSpace=wrap;html=1;aspect=fixed;" vertex="1" parent="1">
          <mxGeometry x="449" y="250" width="20" height="20" as="geometry" />
        </mxCell>
        <mxCell id="nj71NNOMhs7K9aFqE9io-3" style="edgeStyle=orthogonalEdgeStyle;rounded=0;orthogonalLoop=1;jettySize=auto;html=1;exitX=0.5;exitY=1;exitDx=0;exitDy=0;entryX=0.5;entryY=0;entryDx=0;entryDy=0;" edge="1" parent="1" source="nj71NNOMhs7K9aFqE9io-6" target="nj71NNOMhs7K9aFqE9io-37">
          <mxGeometry relative="1" as="geometry" />
        </mxCell>
        <mxCell id="nj71NNOMhs7K9aFqE9io-4" style="edgeStyle=orthogonalEdgeStyle;rounded=0;orthogonalLoop=1;jettySize=auto;html=1;exitX=0;exitY=0.5;exitDx=0;exitDy=0;entryX=0.5;entryY=0;entryDx=0;entryDy=0;" edge="1" parent="1" source="nj71NNOMhs7K9aFqE9io-6" target="nj71NNOMhs7K9aFqE9io-32">
          <mxGeometry relative="1" as="geometry" />
        </mxCell>
        <mxCell id="nj71NNOMhs7K9aFqE9io-5" style="edgeStyle=orthogonalEdgeStyle;rounded=0;orthogonalLoop=1;jettySize=auto;html=1;exitX=1;exitY=0.5;exitDx=0;exitDy=0;entryX=0.5;entryY=0;entryDx=0;entryDy=0;" edge="1" parent="1" source="nj71NNOMhs7K9aFqE9io-6" target="nj71NNOMhs7K9aFqE9io-34">
          <mxGeometry relative="1" as="geometry" />
        </mxCell>
        <mxCell id="nj71NNOMhs7K9aFqE9io-6" value="Оберіть дію" style="rounded=1;whiteSpace=wrap;html=1;" vertex="1" parent="1">
          <mxGeometry x="399" y="330" width="120" height="60" as="geometry" />
        </mxCell>
        <mxCell id="nj71NNOMhs7K9aFqE9io-7" value="&lt;b&gt;Видалити&amp;nbsp;&lt;/b&gt;&lt;b&gt;р&lt;/b&gt;&lt;b&gt;езервації&amp;nbsp;&lt;/b&gt;" style="rounded=0;whiteSpace=wrap;html=1;" vertex="1" parent="1">
          <mxGeometry x="627" y="1300" width="200" height="30" as="geometry" />
        </mxCell>
        <mxCell id="nj71NNOMhs7K9aFqE9io-8" value="entry/Виберати резервацію" style="rounded=0;whiteSpace=wrap;html=1;" vertex="1" parent="1">
          <mxGeometry x="627" y="1330" width="200" height="30" as="geometry" />
        </mxCell>
        <mxCell id="nj71NNOMhs7K9aFqE9io-9" value="&lt;span style=&quot;text-wrap: nowrap;&quot;&gt;do/Видалення&amp;nbsp;&lt;/span&gt;резервації" style="rounded=0;whiteSpace=wrap;html=1;" vertex="1" parent="1">
          <mxGeometry x="627" y="1360" width="200" height="30" as="geometry" />
        </mxCell>
        <mxCell id="nj71NNOMhs7K9aFqE9io-10" style="edgeStyle=orthogonalEdgeStyle;rounded=0;orthogonalLoop=1;jettySize=auto;html=1;exitX=0.5;exitY=1;exitDx=0;exitDy=0;entryX=1;entryY=0.5;entryDx=0;entryDy=0;" edge="1" parent="1" source="nj71NNOMhs7K9aFqE9io-11" target="nj71NNOMhs7K9aFqE9io-17">
          <mxGeometry relative="1" as="geometry">
            <mxPoint x="557" y="1650" as="targetPoint" />
          </mxGeometry>
        </mxCell>
        <mxCell id="nj71NNOMhs7K9aFqE9io-11" value="&lt;span style=&quot;text-wrap: nowrap;&quot;&gt;exit/Збереження даних&lt;/span&gt;" style="rounded=0;whiteSpace=wrap;html=1;" vertex="1" parent="1">
          <mxGeometry x="627" y="1390" width="200" height="30" as="geometry" />
        </mxCell>
        <mxCell id="nj71NNOMhs7K9aFqE9io-12" value="" style="group" vertex="1" connectable="0" parent="1">
          <mxGeometry x="377" y="1370" width="200" height="120" as="geometry" />
        </mxCell>
        <mxCell id="nj71NNOMhs7K9aFqE9io-13" value="&lt;b&gt;Редагувати р&lt;/b&gt;&lt;b&gt;езервації&amp;nbsp;&lt;/b&gt;" style="rounded=0;whiteSpace=wrap;html=1;" vertex="1" parent="nj71NNOMhs7K9aFqE9io-12">
          <mxGeometry width="200" height="30" as="geometry" />
        </mxCell>
        <mxCell id="nj71NNOMhs7K9aFqE9io-14" value="entry/Виберати резервацію" style="rounded=0;whiteSpace=wrap;html=1;" vertex="1" parent="nj71NNOMhs7K9aFqE9io-12">
          <mxGeometry y="30" width="200" height="30" as="geometry" />
        </mxCell>
        <mxCell id="nj71NNOMhs7K9aFqE9io-15" value="&lt;span style=&quot;text-wrap: nowrap;&quot;&gt;do/Введення нових даних&lt;/span&gt;" style="rounded=0;whiteSpace=wrap;html=1;" vertex="1" parent="nj71NNOMhs7K9aFqE9io-12">
          <mxGeometry y="60" width="200" height="30" as="geometry" />
        </mxCell>
        <mxCell id="nj71NNOMhs7K9aFqE9io-16" value="&lt;span style=&quot;text-wrap: nowrap;&quot;&gt;exit/&lt;/span&gt;&lt;span style=&quot;text-wrap: nowrap;&quot;&gt;Перехід до вибору столика&lt;/span&gt;" style="rounded=0;whiteSpace=wrap;html=1;" vertex="1" parent="nj71NNOMhs7K9aFqE9io-12">
          <mxGeometry y="90" width="200" height="30" as="geometry" />
        </mxCell>
        <mxCell id="nj71NNOMhs7K9aFqE9io-17" value="" style="ellipse;whiteSpace=wrap;html=1;aspect=fixed;" vertex="1" parent="1">
          <mxGeometry x="637" y="1700" width="20" height="20" as="geometry" />
        </mxCell>
        <mxCell id="nj71NNOMhs7K9aFqE9io-18" value="" style="curved=1;endArrow=classic;html=1;rounded=0;exitX=0.18;exitY=0.033;exitDx=0;exitDy=0;exitPerimeter=0;entryX=0.435;entryY=-0.1;entryDx=0;entryDy=0;entryPerimeter=0;" edge="1" parent="1">
          <mxGeometry width="50" height="50" relative="1" as="geometry">
            <mxPoint x="407" y="1370.5" as="sourcePoint" />
            <mxPoint x="458" y="1366.5" as="targetPoint" />
            <Array as="points">
              <mxPoint x="421" y="1299.5" />
              <mxPoint x="451" y="1299.5" />
            </Array>
          </mxGeometry>
        </mxCell>
        <mxCell id="nj71NNOMhs7K9aFqE9io-19" value="OnStringTyped" style="text;html=1;align=center;verticalAlign=middle;resizable=0;points=[];autosize=1;strokeColor=none;fillColor=none;" vertex="1" parent="1">
          <mxGeometry x="361" y="1270" width="100" height="30" as="geometry" />
        </mxCell>
        <mxCell id="nj71NNOMhs7K9aFqE9io-20" value="[data_is_incorrect]" style="text;html=1;align=center;verticalAlign=middle;resizable=0;points=[];autosize=1;strokeColor=none;fillColor=none;" vertex="1" parent="1">
          <mxGeometry x="239" y="1375" width="120" height="30" as="geometry" />
        </mxCell>
        <mxCell id="nj71NNOMhs7K9aFqE9io-21" value="[data_is_correct]" style="text;html=1;align=center;verticalAlign=middle;resizable=0;points=[];autosize=1;strokeColor=none;fillColor=none;" vertex="1" parent="1">
          <mxGeometry x="412" y="1680" width="110" height="30" as="geometry" />
        </mxCell>
        <mxCell id="nj71NNOMhs7K9aFqE9io-22" style="edgeStyle=orthogonalEdgeStyle;rounded=0;orthogonalLoop=1;jettySize=auto;html=1;exitX=0.5;exitY=1;exitDx=0;exitDy=0;entryX=0.5;entryY=0;entryDx=0;entryDy=0;" edge="1" parent="1">
          <mxGeometry relative="1" as="geometry">
            <mxPoint x="148" y="1520" as="targetPoint" />
            <mxPoint x="148" y="1320" as="sourcePoint" />
          </mxGeometry>
        </mxCell>
        <mxCell id="nj71NNOMhs7K9aFqE9io-23" value="" style="group" vertex="1" connectable="0" parent="1">
          <mxGeometry x="24" y="1180" width="200" height="120" as="geometry" />
        </mxCell>
        <mxCell id="nj71NNOMhs7K9aFqE9io-24" value="&lt;b&gt;Редагувати коментар&lt;/b&gt;" style="rounded=0;whiteSpace=wrap;html=1;" vertex="1" parent="nj71NNOMhs7K9aFqE9io-23">
          <mxGeometry width="200" height="30" as="geometry" />
        </mxCell>
        <mxCell id="nj71NNOMhs7K9aFqE9io-25" value="entry/Перевірка даних" style="rounded=0;whiteSpace=wrap;html=1;" vertex="1" parent="nj71NNOMhs7K9aFqE9io-23">
          <mxGeometry y="30" width="200" height="30" as="geometry" />
        </mxCell>
        <mxCell id="nj71NNOMhs7K9aFqE9io-26" value="&lt;span style=&quot;text-wrap: nowrap;&quot;&gt;do/Вибір столика&lt;/span&gt;" style="rounded=0;whiteSpace=wrap;html=1;" vertex="1" parent="nj71NNOMhs7K9aFqE9io-23">
          <mxGeometry y="60" width="200" height="30" as="geometry" />
        </mxCell>
        <mxCell id="nj71NNOMhs7K9aFqE9io-27" value="&lt;span style=&quot;text-wrap: nowrap;&quot;&gt;exit/Збереження даних&lt;/span&gt;" style="rounded=0;whiteSpace=wrap;html=1;" vertex="1" parent="nj71NNOMhs7K9aFqE9io-23">
          <mxGeometry y="90" width="200" height="30" as="geometry" />
        </mxCell>
        <mxCell id="nj71NNOMhs7K9aFqE9io-28" style="edgeStyle=orthogonalEdgeStyle;rounded=0;orthogonalLoop=1;jettySize=auto;html=1;exitX=1;exitY=0.5;exitDx=0;exitDy=0;entryX=1;entryY=0.5;entryDx=0;entryDy=0;" edge="1" parent="1">
          <mxGeometry relative="1" as="geometry">
            <Array as="points">
              <mxPoint x="349" y="1565" />
              <mxPoint x="349" y="1275" />
            </Array>
            <mxPoint x="248" y="1565" as="sourcePoint" />
            <mxPoint x="248" y="1275" as="targetPoint" />
          </mxGeometry>
        </mxCell>
        <mxCell id="nj71NNOMhs7K9aFqE9io-29" style="edgeStyle=orthogonalEdgeStyle;rounded=0;orthogonalLoop=1;jettySize=auto;html=1;exitX=0.5;exitY=1;exitDx=0;exitDy=0;entryX=0;entryY=0.5;entryDx=0;entryDy=0;" edge="1" parent="1" target="nj71NNOMhs7K9aFqE9io-17">
          <mxGeometry relative="1" as="geometry">
            <mxPoint x="148" y="1640" as="sourcePoint" />
          </mxGeometry>
        </mxCell>
        <mxCell id="nj71NNOMhs7K9aFqE9io-30" style="edgeStyle=orthogonalEdgeStyle;rounded=0;orthogonalLoop=1;jettySize=auto;html=1;exitX=0.5;exitY=1;exitDx=0;exitDy=0;entryX=1;entryY=0.5;entryDx=0;entryDy=0;" edge="1" parent="1" source="nj71NNOMhs7K9aFqE9io-16">
          <mxGeometry relative="1" as="geometry">
            <mxPoint x="248" y="1535" as="targetPoint" />
          </mxGeometry>
        </mxCell>
        <mxCell id="nj71NNOMhs7K9aFqE9io-31" style="edgeStyle=orthogonalEdgeStyle;rounded=0;orthogonalLoop=1;jettySize=auto;html=1;exitX=0;exitY=0.5;exitDx=0;exitDy=0;entryX=0.5;entryY=1;entryDx=0;entryDy=0;" edge="1" parent="1" target="nj71NNOMhs7K9aFqE9io-44">
          <mxGeometry relative="1" as="geometry">
            <mxPoint x="450" y="990" as="targetPoint" />
            <mxPoint x="78.99" y="490" as="sourcePoint" />
            <Array as="points">
              <mxPoint x="50" y="490" />
              <mxPoint x="50" y="1030" />
              <mxPoint x="479" y="1030" />
            </Array>
          </mxGeometry>
        </mxCell>
        <mxCell id="nj71NNOMhs7K9aFqE9io-32" value="Події" style="rounded=1;whiteSpace=wrap;html=1;fontStyle=1" vertex="1" parent="1">
          <mxGeometry x="80" y="460" width="120" height="60" as="geometry" />
        </mxCell>
        <mxCell id="nj71NNOMhs7K9aFqE9io-33" style="edgeStyle=orthogonalEdgeStyle;rounded=0;orthogonalLoop=1;jettySize=auto;html=1;exitX=0.5;exitY=1;exitDx=0;exitDy=0;entryX=1;entryY=0.5;entryDx=0;entryDy=0;" edge="1" parent="1" source="nj71NNOMhs7K9aFqE9io-34" target="nj71NNOMhs7K9aFqE9io-44">
          <mxGeometry relative="1" as="geometry" />
        </mxCell>
        <mxCell id="nj71NNOMhs7K9aFqE9io-34" value="Форум" style="rounded=1;whiteSpace=wrap;html=1;fontStyle=1" vertex="1" parent="1">
          <mxGeometry x="683" y="460" width="120" height="60" as="geometry" />
        </mxCell>
        <mxCell id="nj71NNOMhs7K9aFqE9io-35" style="edgeStyle=orthogonalEdgeStyle;rounded=0;orthogonalLoop=1;jettySize=auto;html=1;exitX=0.5;exitY=1;exitDx=0;exitDy=0;entryX=0.5;entryY=0;entryDx=0;entryDy=0;" edge="1" parent="1" source="nj71NNOMhs7K9aFqE9io-37" target="nj71NNOMhs7K9aFqE9io-39">
          <mxGeometry relative="1" as="geometry">
            <mxPoint x="219.9999999999999" y="629.9999999999998" as="targetPoint" />
          </mxGeometry>
        </mxCell>
        <mxCell id="nj71NNOMhs7K9aFqE9io-37" value="&lt;p class=&quot;MsoNormal&quot;&gt;&lt;b&gt;&lt;span style=&quot;mso-spacerun:&#39;yes&#39;;font-family:&#39;Times New Roman&#39;;mso-fareast-font-family:Calibri;&lt;br/&gt;mso-ansi-font-weight:bold;mso-bidi-font-weight:normal;font-size:18,0000pt;&quot;&gt;Зміна даних облікового запису&lt;/span&gt;&lt;/b&gt;&lt;/p&gt;" style="rounded=1;whiteSpace=wrap;html=1;" vertex="1" parent="1">
          <mxGeometry x="399" y="460" width="120" height="60" as="geometry" />
        </mxCell>
        <mxCell id="nj71NNOMhs7K9aFqE9io-38" value="" style="group" vertex="1" connectable="0" parent="1">
          <mxGeometry x="359" y="590" width="200" height="120" as="geometry" />
        </mxCell>
        <mxCell id="nj71NNOMhs7K9aFqE9io-39" value="&lt;b&gt;Редагування даних&lt;/b&gt;" style="rounded=0;whiteSpace=wrap;html=1;" vertex="1" parent="nj71NNOMhs7K9aFqE9io-38">
          <mxGeometry width="200" height="30" as="geometry" />
        </mxCell>
        <mxCell id="nj71NNOMhs7K9aFqE9io-40" value="entry/Натискання на кнопку&amp;nbsp;«Редагувати профіль»&amp;nbsp;" style="rounded=0;whiteSpace=wrap;html=1;" vertex="1" parent="nj71NNOMhs7K9aFqE9io-38">
          <mxGeometry y="30" width="200" height="30" as="geometry" />
        </mxCell>
        <mxCell id="nj71NNOMhs7K9aFqE9io-41" value="&lt;span style=&quot;text-wrap: nowrap;&quot;&gt;do/Редагування даних&lt;/span&gt;" style="rounded=0;whiteSpace=wrap;html=1;" vertex="1" parent="nj71NNOMhs7K9aFqE9io-38">
          <mxGeometry y="60" width="200" height="30" as="geometry" />
        </mxCell>
        <mxCell id="nj71NNOMhs7K9aFqE9io-43" value="&lt;span style=&quot;text-wrap: nowrap;&quot;&gt;exit/&lt;/span&gt;Натискання на кнопку&amp;nbsp;«Зберегти зміни»" style="rounded=0;whiteSpace=wrap;html=1;" vertex="1" parent="nj71NNOMhs7K9aFqE9io-38">
          <mxGeometry y="90" width="200" height="30" as="geometry" />
        </mxCell>
        <mxCell id="nj71NNOMhs7K9aFqE9io-44" value="" style="ellipse;whiteSpace=wrap;html=1;aspect=fixed;" vertex="1" parent="1">
          <mxGeometry x="469" y="960" width="20" height="20" as="geometry" />
        </mxCell>
        <mxCell id="nj71NNOMhs7K9aFqE9io-51" value="[data_is_correct]" style="text;html=1;align=center;verticalAlign=middle;resizable=0;points=[];autosize=1;strokeColor=none;fillColor=none;" vertex="1" parent="1">
          <mxGeometry x="330" y="940" width="110" height="30" as="geometry" />
        </mxCell>
        <mxCell id="nj71NNOMhs7K9aFqE9io-58" value="[data_is_incorrect]" style="text;html=1;align=center;verticalAlign=middle;resizable=0;points=[];autosize=1;strokeColor=none;fillColor=none;" vertex="1" parent="1">
          <mxGeometry x="220" y="760" width="120" height="30" as="geometry" />
        </mxCell>
        <mxCell id="nj71NNOMhs7K9aFqE9io-61" value="" style="group" vertex="1" connectable="0" parent="1">
          <mxGeometry x="120" y="900" width="200" height="120" as="geometry" />
        </mxCell>
        <mxCell id="nj71NNOMhs7K9aFqE9io-62" value="&lt;b&gt;Перевірка даних&lt;/b&gt;" style="rounded=0;whiteSpace=wrap;html=1;" vertex="1" parent="nj71NNOMhs7K9aFqE9io-61">
          <mxGeometry width="200" height="30" as="geometry" />
        </mxCell>
        <mxCell id="nj71NNOMhs7K9aFqE9io-63" value="entry/Перевірка даних профіля&amp;nbsp;" style="rounded=0;whiteSpace=wrap;html=1;" vertex="1" parent="nj71NNOMhs7K9aFqE9io-61">
          <mxGeometry y="30" width="200" height="30" as="geometry" />
        </mxCell>
        <mxCell id="nj71NNOMhs7K9aFqE9io-65" value="&lt;span style=&quot;text-wrap: nowrap;&quot;&gt;exit/&lt;/span&gt;Зберегти" style="rounded=0;whiteSpace=wrap;html=1;" vertex="1" parent="nj71NNOMhs7K9aFqE9io-61">
          <mxGeometry y="60" width="200" height="30" as="geometry" />
        </mxCell>
        <mxCell id="nj71NNOMhs7K9aFqE9io-69" style="edgeStyle=orthogonalEdgeStyle;rounded=0;orthogonalLoop=1;jettySize=auto;html=1;entryX=0;entryY=0.5;entryDx=0;entryDy=0;" edge="1" parent="1" source="nj71NNOMhs7K9aFqE9io-62" target="nj71NNOMhs7K9aFqE9io-39">
          <mxGeometry relative="1" as="geometry">
            <Array as="points">
              <mxPoint x="220" y="605" />
            </Array>
          </mxGeometry>
        </mxCell>
        <mxCell id="nj71NNOMhs7K9aFqE9io-70" style="edgeStyle=orthogonalEdgeStyle;rounded=0;orthogonalLoop=1;jettySize=auto;html=1;exitX=1;exitY=0.5;exitDx=0;exitDy=0;entryX=0;entryY=0.5;entryDx=0;entryDy=0;" edge="1" parent="1" source="nj71NNOMhs7K9aFqE9io-65" target="nj71NNOMhs7K9aFqE9io-44">
          <mxGeometry relative="1" as="geometry">
            <Array as="points">
              <mxPoint x="320" y="970" />
            </Array>
          </mxGeometry>
        </mxCell>
        <mxCell id="nj71NNOMhs7K9aFqE9io-71" style="edgeStyle=orthogonalEdgeStyle;rounded=0;orthogonalLoop=1;jettySize=auto;html=1;exitX=0.5;exitY=1;exitDx=0;exitDy=0;entryX=1;entryY=0.5;entryDx=0;entryDy=0;" edge="1" parent="1" source="nj71NNOMhs7K9aFqE9io-43" target="nj71NNOMhs7K9aFqE9io-62">
          <mxGeometry relative="1" as="geometry" />
        </mxCell>
      </root>
    </mxGraphModel>
  </diagram>
</mxfile>
